<?xml version="1.0" standalone="no"?>
 <!DOCTYPE svg PUBLIC "-//W3C//DTD SVG 1.1//EN" 
 "http://www.w3.org/Graphics/SVG/1.1/DTD/svg11.dtd"> 
<svg xmlns="http://www.w3.org/2000/svg" version="1.1" 
    width="5.250175cm" height="7.42505cm" viewBox="4000 0 4000 24000 ">
<title>SVG Picture created as Untitled.svg date 2019/05/22 23:25:36 </title>
  <desc>Picture generated by Eeschema-SVG </desc>
<g style="fill:#000000; fill-opacity:1;stroke:#000000; stroke-opacity:1;
stroke-linecap:round; stroke-linejoin:round; "
 transform="translate(0 0) scale(1 1)">
</g>
<g style="fill:#000000; fill-opacity:0.0; 
stroke:#000000; stroke-width:0; stroke-opacity:1; 
stroke-linecap:round; stroke-linejoin:round;">
</g>
<g style="fill:#840000; fill-opacity:0.0; 
stroke:#840000; stroke-width:0; stroke-opacity:1; 
stroke-linecap:round; stroke-linejoin:round;">
</g>
<g style="fill:#FFFFC2; fill-opacity:0.0; 
stroke:#FFFFC2; stroke-width:0; stroke-opacity:1; 
stroke-linecap:round; stroke-linejoin:round;">
</g>
<g style="fill:#FFFFC2; fill-opacity:0.6; 
stroke:#FFFFC2; stroke-width:0; stroke-opacity:1; 
stroke-linecap:round; stroke-linejoin:round;">
<rect x="1500" y="2500" width="9000" height="20000" rx="0" />
</g>
<g style="fill:#840000; fill-opacity:0.6; 
stroke:#840000; stroke-width:0; stroke-opacity:1; 
stroke-linecap:round; stroke-linejoin:round;">
</g>
<g style="fill:#840000; fill-opacity:0.0; 
stroke:#840000; stroke-width:60; stroke-opacity:1; 
stroke-linecap:round; stroke-linejoin:round;">
<rect x="1500" y="2500" width="9000" height="20000" rx="0" />
<polyline fill="none;"
points="5500,9000
6000,9000
6000,18000
6500,18000
" /> 
<path d="M1500 3000
L500 3000
" />
</g>
<g style="fill:#008484; fill-opacity:0.0; 
stroke:#008484; stroke-width:60; stroke-opacity:1; 
stroke-linecap:round; stroke-linejoin:round;">
<path d="M2330 3170
L2310 3200
L2230 3220
L2190 3220
L2120 3200
L2070 3150
L2040 3100
L2020 3010
L2020 2940
L2040 2840
L2070 2790
L2120 2750
L2190 2720
L2230 2720
L2310 2750
L2330 2770
" />
<path d="M2640 2720
L2730 2720
L2780 2750
L2830 2790
L2850 2890
L2850 3050
L2830 3150
L2780 3200
L2730 3220
L2640 3220
L2590 3200
L2540 3150
L2520 3050
L2520 2890
L2540 2790
L2590 2750
L2640 2720
" />
<path d="M3070 3220
L3070 2720
L3230 3080
L3400 2720
L3400 3220
" />
</g>
<g style="fill:#840000; fill-opacity:0.0; 
stroke:#840000; stroke-width:60; stroke-opacity:1; 
stroke-linecap:round; stroke-linejoin:round;">
<path d="M1140 2870
L850 2870
" />
<path d="M1000 2870
L1000 2370
L950 2440
L900 2490
L850 2510
" />
<path d="M1500 4000
L500 4000
" />
</g>
<g style="fill:#008484; fill-opacity:0.0; 
stroke:#008484; stroke-width:60; stroke-opacity:1; 
stroke-linecap:round; stroke-linejoin:round;">
<path d="M2310 4220
L2020 4220
" />
<path d="M2160 4220
L2160 3720
L2120 3790
L2070 3840
L2020 3860
" />
<path d="M2520 4220
L2520 3720
L2640 3720
L2710 3750
L2760 3790
L2780 3840
L2810 3940
L2810 4010
L2780 4100
L2760 4150
L2710 4200
L2640 4220
L2520 4220
" />
</g>
<g style="fill:#840000; fill-opacity:0.0; 
stroke:#840000; stroke-width:60; stroke-opacity:1; 
stroke-linecap:round; stroke-linejoin:round;">
<path d="M850 3420
L880 3400
L920 3370
L1040 3370
L1090 3400
L1110 3420
L1140 3470
L1140 3510
L1110 3590
L830 3870
L1140 3870
" />
<path d="M1500 5000
L500 5000
" />
</g>
<g style="fill:#008484; fill-opacity:0.0; 
stroke:#008484; stroke-width:60; stroke-opacity:1; 
stroke-linecap:round; stroke-linejoin:round;">
<path d="M2310 5220
L2020 5220
" />
<path d="M2160 5220
L2160 4720
L2120 4790
L2070 4840
L2020 4860
" />
<path d="M2690 4960
L2520 4960
" />
<path d="M2520 5220
L2520 4720
L2760 4720
" />
</g>
<g style="fill:#840000; fill-opacity:0.0; 
stroke:#840000; stroke-width:60; stroke-opacity:1; 
stroke-linecap:round; stroke-linejoin:round;">
<path d="M830 4370
L1140 4370
L970 4560
L1040 4560
L1090 4590
L1110 4610
L1140 4660
L1140 4780
L1110 4820
L1090 4850
L1040 4870
L900 4870
L850 4850
L830 4820
" />
<path d="M1500 6000
L500 6000
" />
</g>
<g style="fill:#008484; fill-opacity:0.0; 
stroke:#008484; stroke-width:60; stroke-opacity:1; 
stroke-linecap:round; stroke-linejoin:round;">
<path d="M2310 6220
L2020 6220
" />
<path d="M2160 6220
L2160 5720
L2120 5790
L2070 5840
L2020 5860
" />
<path d="M2810 6170
L2780 6200
L2710 6220
L2660 6220
L2590 6200
L2540 6150
L2520 6100
L2500 6010
L2500 5940
L2520 5840
L2540 5790
L2590 5750
L2660 5720
L2710 5720
L2780 5750
L2810 5770
" />
</g>
<g style="fill:#840000; fill-opacity:0.0; 
stroke:#840000; stroke-width:60; stroke-opacity:1; 
stroke-linecap:round; stroke-linejoin:round;">
<path d="M1090 5540
L1090 5870
" />
<path d="M970 5350
L850 5700
L1160 5700
" />
<path d="M1500 7000
L500 7000
" />
</g>
<g style="fill:#008484; fill-opacity:0.0; 
stroke:#008484; stroke-width:60; stroke-opacity:1; 
stroke-linecap:round; stroke-linejoin:round;">
<path d="M2310 7220
L2020 7220
" />
<path d="M2160 7220
L2160 6720
L2120 6790
L2070 6840
L2020 6860
" />
<path d="M2690 6960
L2760 6980
L2780 7010
L2810 7050
L2810 7130
L2780 7170
L2760 7200
L2710 7220
L2520 7220
L2520 6720
L2690 6720
L2730 6750
L2760 6770
L2780 6820
L2780 6860
L2760 6910
L2730 6940
L2690 6960
L2520 6960
" />
</g>
<g style="fill:#840000; fill-opacity:0.0; 
stroke:#840000; stroke-width:60; stroke-opacity:1; 
stroke-linecap:round; stroke-linejoin:round;">
<path d="M1110 6370
L880 6370
L850 6610
L880 6590
L920 6560
L1040 6560
L1090 6590
L1110 6610
L1140 6660
L1140 6780
L1110 6820
L1090 6850
L1040 6870
L920 6870
L880 6850
L850 6820
" />
<path d="M1500 8000
L500 8000
" />
</g>
<g style="fill:#008484; fill-opacity:0.0; 
stroke:#008484; stroke-width:60; stroke-opacity:1; 
stroke-linecap:round; stroke-linejoin:round;">
<path d="M2310 8220
L2020 8220
" />
<path d="M2160 8220
L2160 7720
L2120 7790
L2070 7840
L2020 7860
" />
<path d="M2500 8080
L2730 8080
" />
<path d="M2450 8220
L2620 7720
L2780 8220
" />
</g>
<g style="fill:#840000; fill-opacity:0.0; 
stroke:#840000; stroke-width:60; stroke-opacity:1; 
stroke-linecap:round; stroke-linejoin:round;">
<path d="M1090 7370
L1000 7370
L950 7400
L920 7420
L880 7490
L850 7590
L850 7780
L880 7820
L900 7850
L950 7870
L1040 7870
L1090 7850
L1110 7820
L1140 7780
L1140 7660
L1110 7610
L1090 7590
L1040 7560
L950 7560
L900 7590
L880 7610
L850 7660
" />
<path d="M1500 9000
L500 9000
" />
</g>
<g style="fill:#008484; fill-opacity:0.0; 
stroke:#008484; stroke-width:60; stroke-opacity:1; 
stroke-linecap:round; stroke-linejoin:round;">
<path d="M2310 8750
L2260 8720
L2190 8720
L2120 8750
L2070 8790
L2040 8840
L2020 8940
L2020 9010
L2040 9100
L2070 9150
L2120 9200
L2190 9220
L2230 9220
L2310 9200
L2330 9170
L2330 9010
L2230 9010
" />
<path d="M2830 9220
L2660 8980
" />
<path d="M2540 9220
L2540 8720
L2730 8720
L2780 8750
L2810 8770
L2830 8820
L2830 8890
L2810 8940
L2780 8960
L2730 8980
L2540 8980
" />
<path d="M3140 8720
L3230 8720
L3280 8750
L3330 8790
L3350 8890
L3350 9050
L3330 9150
L3280 9200
L3230 9220
L3140 9220
L3090 9200
L3040 9150
L3020 9050
L3020 8890
L3040 8790
L3090 8750
L3140 8720
" />
<path d="M3570 8720
L3570 9130
L3590 9170
L3620 9200
L3660 9220
L3760 9220
L3810 9200
L3830 9170
L3850 9130
L3850 8720
" />
<path d="M4090 9220
L4090 8720
L4380 9220
L4380 8720
" />
<path d="M4620 9220
L4620 8720
L4730 8720
L4810 8750
L4850 8790
L4880 8840
L4900 8940
L4900 9010
L4880 9100
L4850 9150
L4810 9200
L4730 9220
L4620 9220
" />
</g>
<g style="fill:#840000; fill-opacity:0.0; 
stroke:#840000; stroke-width:60; stroke-opacity:1; 
stroke-linecap:round; stroke-linejoin:round;">
<path d="M830 8370
L1160 8370
L950 8870
" />
<path d="M1500 10000
L500 10000
" />
</g>
<g style="fill:#008484; fill-opacity:0.0; 
stroke:#008484; stroke-width:60; stroke-opacity:1; 
stroke-linecap:round; stroke-linejoin:round;">
<path d="M2310 10220
L2020 10220
" />
<path d="M2160 10220
L2160 9720
L2120 9790
L2070 9840
L2020 9860
" />
<path d="M2520 9960
L2690 9960
" />
<path d="M2760 10220
L2520 10220
L2520 9720
L2760 9720
" />
</g>
<g style="fill:#840000; fill-opacity:0.0; 
stroke:#840000; stroke-width:60; stroke-opacity:1; 
stroke-linecap:round; stroke-linejoin:round;">
<path d="M950 9590
L900 9560
L880 9540
L850 9490
L850 9470
L880 9420
L900 9400
L950 9370
L1040 9370
L1090 9400
L1110 9420
L1140 9470
L1140 9490
L1110 9540
L1090 9560
L1040 9590
L950 9590
L900 9610
L880 9630
L850 9680
L850 9780
L880 9820
L900 9850
L950 9870
L1040 9870
L1090 9850
L1110 9820
L1140 9780
L1140 9680
L1110 9630
L1090 9610
L1040 9590
" />
<path d="M1500 11000
L500 11000
" />
</g>
<g style="fill:#008484; fill-opacity:0.0; 
stroke:#008484; stroke-width:60; stroke-opacity:1; 
stroke-linecap:round; stroke-linejoin:round;">
<path d="M2310 11220
L2020 11220
" />
<path d="M2160 11220
L2160 10720
L2120 10790
L2070 10840
L2020 10860
" />
<path d="M2780 10750
L2730 10720
L2660 10720
L2590 10750
L2540 10790
L2520 10840
L2500 10940
L2500 11010
L2520 11100
L2540 11150
L2590 11200
L2660 11220
L2710 11220
L2780 11200
L2810 11170
L2810 11010
L2710 11010
" />
</g>
<g style="fill:#840000; fill-opacity:0.0; 
stroke:#840000; stroke-width:60; stroke-opacity:1; 
stroke-linecap:round; stroke-linejoin:round;">
<path d="M900 10870
L1000 10870
L1040 10850
L1070 10820
L1110 10750
L1140 10660
L1140 10470
L1110 10420
L1090 10400
L1040 10370
L950 10370
L900 10400
L880 10420
L850 10470
L850 10590
L880 10630
L900 10660
L950 10680
L1040 10680
L1090 10660
L1110 10630
L1140 10590
" />
<path d="M1500 12000
L500 12000
" />
</g>
<g style="fill:#008484; fill-opacity:0.0; 
stroke:#008484; stroke-width:60; stroke-opacity:1; 
stroke-linecap:round; stroke-linejoin:round;">
<path d="M2140 11720
L2190 11720
L2230 11750
L2260 11770
L2280 11820
L2310 11910
L2310 12030
L2280 12130
L2260 12170
L2230 12200
L2190 12220
L2140 12220
L2090 12200
L2070 12170
L2040 12130
L2020 12030
L2020 11910
L2040 11820
L2070 11770
L2090 11750
L2140 11720
" />
<path d="M2780 11750
L2730 11720
L2660 11720
L2590 11750
L2540 11790
L2520 11840
L2500 11940
L2500 12010
L2520 12100
L2540 12150
L2590 12200
L2660 12220
L2710 12220
L2780 12200
L2810 12170
L2810 12010
L2710 12010
" />
</g>
<g style="fill:#840000; fill-opacity:0.0; 
stroke:#840000; stroke-width:60; stroke-opacity:1; 
stroke-linecap:round; stroke-linejoin:round;">
<path d="M900 11870
L610 11870
" />
<path d="M760 11870
L760 11370
L710 11440
L660 11490
L610 11510
" />
<path d="M1210 11370
L1260 11370
L1300 11400
L1330 11420
L1350 11470
L1380 11560
L1380 11680
L1350 11780
L1330 11820
L1300 11850
L1260 11870
L1210 11870
L1160 11850
L1140 11820
L1110 11780
L1090 11680
L1090 11560
L1110 11470
L1140 11420
L1160 11400
L1210 11370
" />
<path d="M1500 22000
L500 22000
" />
</g>
<g style="fill:#008484; fill-opacity:0.0; 
stroke:#008484; stroke-width:60; stroke-opacity:1; 
stroke-linecap:round; stroke-linejoin:round;">
<path d="M2020 22080
L2260 22080
" />
<path d="M1970 22220
L2140 21720
L2310 22220
" />
<path d="M2450 21770
L2470 21750
L2520 21720
L2640 21720
L2690 21750
L2710 21770
L2730 21820
L2730 21860
L2710 21940
L2430 22220
L2730 22220
" />
</g>
<g style="fill:#840000; fill-opacity:0.0; 
stroke:#840000; stroke-width:60; stroke-opacity:1; 
stroke-linecap:round; stroke-linejoin:round;">
<path d="M610 21420
L640 21400
L690 21370
L800 21370
L850 21400
L880 21420
L900 21470
L900 21510
L880 21590
L590 21870
L900 21870
" />
<path d="M1210 21370
L1260 21370
L1300 21400
L1330 21420
L1350 21470
L1380 21560
L1380 21680
L1350 21780
L1330 21820
L1300 21850
L1260 21870
L1210 21870
L1160 21850
L1140 21820
L1110 21780
L1090 21680
L1090 21560
L1110 21470
L1140 21420
L1160 21400
L1210 21370
" />
<path d="M10500 13000
L11500 13000
" />
</g>
<g style="fill:#008484; fill-opacity:0.0; 
stroke:#008484; stroke-width:60; stroke-opacity:1; 
stroke-linecap:round; stroke-linejoin:round;">
<path d="M9230 12720
L9540 12720
L9370 12910
L9450 12910
L9490 12940
L9520 12960
L9540 13010
L9540 13130
L9520 13170
L9490 13200
L9450 13220
L9300 13220
L9260 13200
L9230 13170
" />
<path d="M9920 12960
L9760 12960
" />
<path d="M9760 13220
L9760 12720
L9990 12720
" />
</g>
<g style="fill:#840000; fill-opacity:0.0; 
stroke:#840000; stroke-width:60; stroke-opacity:1; 
stroke-linecap:round; stroke-linejoin:round;">
<path d="M10590 12370
L10900 12370
L10730 12560
L10800 12560
L10850 12590
L10880 12610
L10900 12660
L10900 12780
L10880 12820
L10850 12850
L10800 12870
L10660 12870
L10610 12850
L10590 12820
" />
<path d="M11210 12370
L11260 12370
L11300 12400
L11330 12420
L11350 12470
L11380 12560
L11380 12680
L11350 12780
L11330 12820
L11300 12850
L11260 12870
L11210 12870
L11160 12850
L11140 12820
L11110 12780
L11090 12680
L11090 12560
L11110 12470
L11140 12420
L11160 12400
L11210 12370
" />
<path d="M10500 3000
L11500 3000
" />
</g>
<g style="fill:#008484; fill-opacity:0.0; 
stroke:#008484; stroke-width:60; stroke-opacity:1; 
stroke-linecap:round; stroke-linejoin:round;">
<path d="M9180 2770
L9210 2750
L9260 2720
L9370 2720
L9420 2750
L9450 2770
L9470 2820
L9470 2860
L9450 2940
L9160 3220
L9470 3220
" />
<path d="M9680 3220
L9680 2720
L9800 2720
L9870 2750
L9920 2790
L9950 2840
L9970 2940
L9970 3010
L9950 3100
L9920 3150
L9870 3200
L9800 3220
L9680 3220
" />
</g>
<g style="fill:#840000; fill-opacity:0.0; 
stroke:#840000; stroke-width:60; stroke-opacity:1; 
stroke-linecap:round; stroke-linejoin:round;">
<path d="M10850 2540
L10850 2870
" />
<path d="M10730 2350
L10610 2700
L10920 2700
" />
<path d="M11210 2370
L11260 2370
L11300 2400
L11330 2420
L11350 2470
L11380 2560
L11380 2680
L11350 2780
L11330 2820
L11300 2850
L11260 2870
L11210 2870
L11160 2850
L11140 2820
L11110 2780
L11090 2680
L11090 2560
L11110 2470
L11140 2420
L11160 2400
L11210 2370
" />
<path d="M1500 13000
L500 13000
" />
</g>
<g style="fill:#008484; fill-opacity:0.0; 
stroke:#008484; stroke-width:60; stroke-opacity:1; 
stroke-linecap:round; stroke-linejoin:round;">
<path d="M2140 12720
L2190 12720
L2230 12750
L2260 12770
L2280 12820
L2310 12910
L2310 13030
L2280 13130
L2260 13170
L2230 13200
L2190 13220
L2140 13220
L2090 13200
L2070 13170
L2040 13130
L2020 13030
L2020 12910
L2040 12820
L2070 12770
L2090 12750
L2140 12720
" />
<path d="M2520 12960
L2690 12960
" />
<path d="M2760 13220
L2520 13220
L2520 12720
L2760 12720
" />
</g>
<g style="fill:#840000; fill-opacity:0.0; 
stroke:#840000; stroke-width:60; stroke-opacity:1; 
stroke-linecap:round; stroke-linejoin:round;">
<path d="M900 12870
L610 12870
" />
<path d="M760 12870
L760 12370
L710 12440
L660 12490
L610 12510
" />
<path d="M1380 12870
L1090 12870
" />
<path d="M1230 12870
L1230 12370
L1190 12440
L1140 12490
L1090 12510
" />
<path d="M10500 22000
L11500 22000
" />
</g>
<g style="fill:#008484; fill-opacity:0.0; 
stroke:#008484; stroke-width:60; stroke-opacity:1; 
stroke-linecap:round; stroke-linejoin:round;">
<path d="M9370 21960
L9450 21980
L9470 22010
L9490 22050
L9490 22130
L9470 22170
L9450 22200
L9400 22220
L9210 22220
L9210 21720
L9370 21720
L9420 21750
L9450 21770
L9470 21820
L9470 21860
L9450 21910
L9420 21940
L9370 21960
L9210 21960
" />
<path d="M9800 21720
L9850 21720
L9900 21750
L9920 21770
L9950 21820
L9970 21910
L9970 22030
L9950 22130
L9920 22170
L9900 22200
L9850 22220
L9800 22220
L9760 22200
L9730 22170
L9710 22130
L9680 22030
L9680 21910
L9710 21820
L9730 21770
L9760 21750
L9800 21720
" />
</g>
<g style="fill:#840000; fill-opacity:0.0; 
stroke:#840000; stroke-width:60; stroke-opacity:1; 
stroke-linecap:round; stroke-linejoin:round;">
<path d="M10610 21420
L10640 21400
L10690 21370
L10800 21370
L10850 21400
L10880 21420
L10900 21470
L10900 21510
L10880 21590
L10590 21870
L10900 21870
" />
<path d="M11380 21870
L11090 21870
" />
<path d="M11230 21870
L11230 21370
L11190 21440
L11140 21490
L11090 21510
" />
<path d="M10500 12000
L11500 12000
" />
</g>
<g style="fill:#008484; fill-opacity:0.0; 
stroke:#008484; stroke-width:60; stroke-opacity:1; 
stroke-linecap:round; stroke-linejoin:round;">
<path d="M9210 11720
L9520 11720
L9350 11910
L9420 11910
L9470 11940
L9490 11960
L9520 12010
L9520 12130
L9490 12170
L9470 12200
L9420 12220
L9280 12220
L9230 12200
L9210 12170
" />
<path d="M9730 11960
L9900 11960
" />
<path d="M9970 12220
L9730 12220
L9730 11720
L9970 11720
" />
</g>
<g style="fill:#840000; fill-opacity:0.0; 
stroke:#840000; stroke-width:60; stroke-opacity:1; 
stroke-linecap:round; stroke-linejoin:round;">
<path d="M10590 11370
L10900 11370
L10730 11560
L10800 11560
L10850 11590
L10880 11610
L10900 11660
L10900 11780
L10880 11820
L10850 11850
L10800 11870
L10660 11870
L10610 11850
L10590 11820
" />
<path d="M11380 11870
L11090 11870
" />
<path d="M11230 11870
L11230 11370
L11190 11440
L11140 11490
L11090 11510
" />
<path d="M1500 14000
L500 14000
" />
</g>
<g style="fill:#008484; fill-opacity:0.0; 
stroke:#008484; stroke-width:60; stroke-opacity:1; 
stroke-linecap:round; stroke-linejoin:round;">
<path d="M2140 13720
L2190 13720
L2230 13750
L2260 13770
L2280 13820
L2310 13910
L2310 14030
L2280 14130
L2260 14170
L2230 14200
L2190 14220
L2140 14220
L2090 14200
L2070 14170
L2040 14130
L2020 14030
L2020 13910
L2040 13820
L2070 13770
L2090 13750
L2140 13720
" />
<path d="M2690 13960
L2520 13960
" />
<path d="M2520 14220
L2520 13720
L2760 13720
" />
</g>
<g style="fill:#840000; fill-opacity:0.0; 
stroke:#840000; stroke-width:60; stroke-opacity:1; 
stroke-linecap:round; stroke-linejoin:round;">
<path d="M900 13870
L610 13870
" />
<path d="M760 13870
L760 13370
L710 13440
L660 13490
L610 13510
" />
<path d="M1090 13420
L1110 13400
L1160 13370
L1280 13370
L1330 13400
L1350 13420
L1380 13470
L1380 13510
L1350 13590
L1070 13870
L1380 13870
" />
<path d="M10500 21000
L11500 21000
" />
</g>
<g style="fill:#008484; fill-opacity:0.0; 
stroke:#008484; stroke-width:60; stroke-opacity:1; 
stroke-linecap:round; stroke-linejoin:round;">
<path d="M9370 20960
L9450 20980
L9470 21010
L9490 21050
L9490 21130
L9470 21170
L9450 21200
L9400 21220
L9210 21220
L9210 20720
L9370 20720
L9420 20750
L9450 20770
L9470 20820
L9470 20860
L9450 20910
L9420 20940
L9370 20960
L9210 20960
" />
<path d="M9970 21220
L9680 21220
" />
<path d="M9830 21220
L9830 20720
L9780 20790
L9730 20840
L9680 20860
" />
</g>
<g style="fill:#840000; fill-opacity:0.0; 
stroke:#840000; stroke-width:60; stroke-opacity:1; 
stroke-linecap:round; stroke-linejoin:round;">
<path d="M10610 20420
L10640 20400
L10690 20370
L10800 20370
L10850 20400
L10880 20420
L10900 20470
L10900 20510
L10880 20590
L10590 20870
L10900 20870
" />
<path d="M11090 20420
L11110 20400
L11160 20370
L11280 20370
L11330 20400
L11350 20420
L11380 20470
L11380 20510
L11350 20590
L11070 20870
L11380 20870
" />
<path d="M10500 11000
L11500 11000
" />
</g>
<g style="fill:#008484; fill-opacity:0.0; 
stroke:#008484; stroke-width:60; stroke-opacity:1; 
stroke-linecap:round; stroke-linejoin:round;">
<path d="M9160 10720
L9470 10720
L9300 10910
L9370 10910
L9420 10940
L9450 10960
L9470 11010
L9470 11130
L9450 11170
L9420 11200
L9370 11220
L9230 11220
L9180 11200
L9160 11170
" />
<path d="M9950 10750
L9900 10720
L9830 10720
L9760 10750
L9710 10790
L9680 10840
L9660 10940
L9660 11010
L9680 11100
L9710 11150
L9760 11200
L9830 11220
L9870 11220
L9950 11200
L9970 11170
L9970 11010
L9870 11010
" />
</g>
<g style="fill:#840000; fill-opacity:0.0; 
stroke:#840000; stroke-width:60; stroke-opacity:1; 
stroke-linecap:round; stroke-linejoin:round;">
<path d="M10590 10370
L10900 10370
L10730 10560
L10800 10560
L10850 10590
L10880 10610
L10900 10660
L10900 10780
L10880 10820
L10850 10850
L10800 10870
L10660 10870
L10610 10850
L10590 10820
" />
<path d="M11090 10420
L11110 10400
L11160 10370
L11280 10370
L11330 10400
L11350 10420
L11380 10470
L11380 10510
L11350 10590
L11070 10870
L11380 10870
" />
<path d="M1500 15000
L500 15000
" />
</g>
<g style="fill:#008484; fill-opacity:0.0; 
stroke:#008484; stroke-width:60; stroke-opacity:1; 
stroke-linecap:round; stroke-linejoin:round;">
<path d="M2140 14720
L2190 14720
L2230 14750
L2260 14770
L2280 14820
L2310 14910
L2310 15030
L2280 15130
L2260 15170
L2230 15200
L2190 15220
L2140 15220
L2090 15200
L2070 15170
L2040 15130
L2020 15030
L2020 14910
L2040 14820
L2070 14770
L2090 14750
L2140 14720
" />
<path d="M2520 15220
L2520 14720
L2640 14720
L2710 14750
L2760 14790
L2780 14840
L2810 14940
L2810 15010
L2780 15100
L2760 15150
L2710 15200
L2640 15220
L2520 15220
" />
</g>
<g style="fill:#840000; fill-opacity:0.0; 
stroke:#840000; stroke-width:60; stroke-opacity:1; 
stroke-linecap:round; stroke-linejoin:round;">
<path d="M900 14870
L610 14870
" />
<path d="M760 14870
L760 14370
L710 14440
L660 14490
L610 14510
" />
<path d="M1070 14370
L1380 14370
L1210 14560
L1280 14560
L1330 14590
L1350 14610
L1380 14660
L1380 14780
L1350 14820
L1330 14850
L1280 14870
L1140 14870
L1090 14850
L1070 14820
" />
<path d="M10500 20000
L11500 20000
" />
</g>
<g style="fill:#008484; fill-opacity:0.0; 
stroke:#008484; stroke-width:60; stroke-opacity:1; 
stroke-linecap:round; stroke-linejoin:round;">
<path d="M8450 20220
L8450 19720
L8570 19720
L8640 19750
L8680 19790
L8710 19840
L8730 19940
L8730 20010
L8710 20100
L8680 20150
L8640 20200
L8570 20220
L8450 20220
" />
<path d="M8920 20080
L9160 20080
" />
<path d="M8870 20220
L9040 19720
L9210 20220
" />
<path d="M9300 19720
L9590 19720
" />
<path d="M9450 20220
L9450 19720
" />
<path d="M9730 20080
L9970 20080
" />
<path d="M9680 20220
L9850 19720
L10020 20220
" />
</g>
<g style="fill:#840000; fill-opacity:0.0; 
stroke:#840000; stroke-width:60; stroke-opacity:1; 
stroke-linecap:round; stroke-linejoin:round;">
<path d="M10610 19420
L10640 19400
L10690 19370
L10800 19370
L10850 19400
L10880 19420
L10900 19470
L10900 19510
L10880 19590
L10590 19870
L10900 19870
" />
<path d="M11070 19370
L11380 19370
L11210 19560
L11280 19560
L11330 19590
L11350 19610
L11380 19660
L11380 19780
L11350 19820
L11330 19850
L11280 19870
L11140 19870
L11090 19850
L11070 19820
" />
<path d="M10500 10000
L11500 10000
" />
</g>
<g style="fill:#008484; fill-opacity:0.0; 
stroke:#008484; stroke-width:60; stroke-opacity:1; 
stroke-linecap:round; stroke-linejoin:round;">
<path d="M9180 9770
L9210 9750
L9260 9720
L9370 9720
L9420 9750
L9450 9770
L9470 9820
L9470 9860
L9450 9940
L9160 10220
L9470 10220
" />
<path d="M9950 9750
L9900 9720
L9830 9720
L9760 9750
L9710 9790
L9680 9840
L9660 9940
L9660 10010
L9680 10100
L9710 10150
L9760 10200
L9830 10220
L9870 10220
L9950 10200
L9970 10170
L9970 10010
L9870 10010
" />
</g>
<g style="fill:#840000; fill-opacity:0.0; 
stroke:#840000; stroke-width:60; stroke-opacity:1; 
stroke-linecap:round; stroke-linejoin:round;">
<path d="M10590 9370
L10900 9370
L10730 9560
L10800 9560
L10850 9590
L10880 9610
L10900 9660
L10900 9780
L10880 9820
L10850 9850
L10800 9870
L10660 9870
L10610 9850
L10590 9820
" />
<path d="M11070 9370
L11380 9370
L11210 9560
L11280 9560
L11330 9590
L11350 9610
L11380 9660
L11380 9780
L11350 9820
L11330 9850
L11280 9870
L11140 9870
L11090 9850
L11070 9820
" />
<path d="M1500 16000
L500 16000
" />
</g>
<g style="fill:#008484; fill-opacity:0.0; 
stroke:#008484; stroke-width:60; stroke-opacity:1; 
stroke-linecap:round; stroke-linejoin:round;">
<path d="M2140 15720
L2190 15720
L2230 15750
L2260 15770
L2280 15820
L2310 15910
L2310 16030
L2280 16130
L2260 16170
L2230 16200
L2190 16220
L2140 16220
L2090 16200
L2070 16170
L2040 16130
L2020 16030
L2020 15910
L2040 15820
L2070 15770
L2090 15750
L2140 15720
" />
<path d="M2810 16170
L2780 16200
L2710 16220
L2660 16220
L2590 16200
L2540 16150
L2520 16100
L2500 16010
L2500 15940
L2520 15840
L2540 15790
L2590 15750
L2660 15720
L2710 15720
L2780 15750
L2810 15770
" />
</g>
<g style="fill:#840000; fill-opacity:0.0; 
stroke:#840000; stroke-width:60; stroke-opacity:1; 
stroke-linecap:round; stroke-linejoin:round;">
<path d="M900 15870
L610 15870
" />
<path d="M760 15870
L760 15370
L710 15440
L660 15490
L610 15510
" />
<path d="M1330 15540
L1330 15870
" />
<path d="M1210 15350
L1090 15700
L1400 15700
" />
<path d="M10500 19000
L11500 19000
" />
</g>
<g style="fill:#008484; fill-opacity:0.0; 
stroke:#008484; stroke-width:60; stroke-opacity:1; 
stroke-linecap:round; stroke-linejoin:round;">
<path d="M7420 18960
L7590 18960
" />
<path d="M7660 19220
L7420 19220
L7420 18720
L7660 18720
" />
<path d="M7870 19220
L7870 18720
L8160 19220
L8160 18720
" />
<path d="M8370 19080
L8610 19080
" />
<path d="M8330 19220
L8490 18720
L8660 19220
" />
<path d="M8990 18960
L9070 18980
L9090 19010
L9110 19050
L9110 19130
L9090 19170
L9070 19200
L9020 19220
L8830 19220
L8830 18720
L8990 18720
L9040 18750
L9070 18770
L9090 18820
L9090 18860
L9070 18910
L9040 18940
L8990 18960
L8830 18960
" />
<path d="M9570 19220
L9330 19220
L9330 18720
" />
<path d="M9730 18960
L9900 18960
" />
<path d="M9970 19220
L9730 19220
L9730 18720
L9970 18720
" />
</g>
<g style="fill:#840000; fill-opacity:0.0; 
stroke:#840000; stroke-width:60; stroke-opacity:1; 
stroke-linecap:round; stroke-linejoin:round;">
<path d="M10610 18420
L10640 18400
L10690 18370
L10800 18370
L10850 18400
L10880 18420
L10900 18470
L10900 18510
L10880 18590
L10590 18870
L10900 18870
" />
<path d="M11330 18540
L11330 18870
" />
<path d="M11210 18350
L11090 18700
L11400 18700
" />
<path d="M10500 9000
L11500 9000
" />
</g>
<g style="fill:#008484; fill-opacity:0.0; 
stroke:#008484; stroke-width:60; stroke-opacity:1; 
stroke-linecap:round; stroke-linejoin:round;">
<path d="M9230 8770
L9260 8750
L9300 8720
L9420 8720
L9470 8750
L9490 8770
L9520 8820
L9520 8860
L9490 8940
L9210 9220
L9520 9220
" />
<path d="M9730 8960
L9900 8960
" />
<path d="M9970 9220
L9730 9220
L9730 8720
L9970 8720
" />
</g>
<g style="fill:#840000; fill-opacity:0.0; 
stroke:#840000; stroke-width:60; stroke-opacity:1; 
stroke-linecap:round; stroke-linejoin:round;">
<path d="M10590 8370
L10900 8370
L10730 8560
L10800 8560
L10850 8590
L10880 8610
L10900 8660
L10900 8780
L10880 8820
L10850 8850
L10800 8870
L10660 8870
L10610 8850
L10590 8820
" />
<path d="M11330 8540
L11330 8870
" />
<path d="M11210 8350
L11090 8700
L11400 8700
" />
<path d="M1500 17000
L500 17000
" />
</g>
<g style="fill:#008484; fill-opacity:0.0; 
stroke:#008484; stroke-width:60; stroke-opacity:1; 
stroke-linecap:round; stroke-linejoin:round;">
<path d="M2140 16720
L2190 16720
L2230 16750
L2260 16770
L2280 16820
L2310 16910
L2310 17030
L2280 17130
L2260 17170
L2230 17200
L2190 17220
L2140 17220
L2090 17200
L2070 17170
L2040 17130
L2020 17030
L2020 16910
L2040 16820
L2070 16770
L2090 16750
L2140 16720
" />
<path d="M2690 16960
L2760 16980
L2780 17010
L2810 17050
L2810 17130
L2780 17170
L2760 17200
L2710 17220
L2520 17220
L2520 16720
L2690 16720
L2730 16750
L2760 16770
L2780 16820
L2780 16860
L2760 16910
L2730 16940
L2690 16960
L2520 16960
" />
</g>
<g style="fill:#840000; fill-opacity:0.0; 
stroke:#840000; stroke-width:60; stroke-opacity:1; 
stroke-linecap:round; stroke-linejoin:round;">
<path d="M900 16870
L610 16870
" />
<path d="M760 16870
L760 16370
L710 16440
L660 16490
L610 16510
" />
<path d="M1350 16370
L1110 16370
L1090 16610
L1110 16590
L1160 16560
L1280 16560
L1330 16590
L1350 16610
L1380 16660
L1380 16780
L1350 16820
L1330 16850
L1280 16870
L1160 16870
L1110 16850
L1090 16820
" />
<path d="M10500 18000
L11500 18000
" />
</g>
<g style="fill:#008484; fill-opacity:0.0; 
stroke:#008484; stroke-width:60; stroke-opacity:1; 
stroke-linecap:round; stroke-linejoin:round;">
<path d="M7370 17750
L7330 17720
L7260 17720
L7180 17750
L7140 17790
L7110 17840
L7090 17940
L7090 18010
L7110 18100
L7140 18150
L7180 18200
L7260 18220
L7300 18220
L7370 18200
L7400 18170
L7400 18010
L7300 18010
" />
<path d="M7900 18220
L7730 17980
" />
<path d="M7610 18220
L7610 17720
L7800 17720
L7850 17750
L7870 17770
L7900 17820
L7900 17890
L7870 17940
L7850 17960
L7800 17980
L7610 17980
" />
<path d="M8210 17720
L8300 17720
L8350 17750
L8400 17790
L8420 17890
L8420 18050
L8400 18150
L8350 18200
L8300 18220
L8210 18220
L8160 18200
L8110 18150
L8090 18050
L8090 17890
L8110 17790
L8160 17750
L8210 17720
" />
<path d="M8640 17720
L8640 18130
L8660 18170
L8680 18200
L8730 18220
L8830 18220
L8870 18200
L8900 18170
L8920 18130
L8920 17720
" />
<path d="M9160 18220
L9160 17720
L9450 18220
L9450 17720
" />
<path d="M9680 18220
L9680 17720
L9800 17720
L9870 17750
L9920 17790
L9950 17840
L9970 17940
L9970 18010
L9950 18100
L9920 18150
L9870 18200
L9800 18220
L9680 18220
" />
</g>
<g style="fill:#840000; fill-opacity:0.0; 
stroke:#840000; stroke-width:60; stroke-opacity:1; 
stroke-linecap:round; stroke-linejoin:round;">
<path d="M10610 17420
L10640 17400
L10690 17370
L10800 17370
L10850 17400
L10880 17420
L10900 17470
L10900 17510
L10880 17590
L10590 17870
L10900 17870
" />
<path d="M11350 17370
L11110 17370
L11090 17610
L11110 17590
L11160 17560
L11280 17560
L11330 17590
L11350 17610
L11380 17660
L11380 17780
L11350 17820
L11330 17850
L11280 17870
L11160 17870
L11110 17850
L11090 17820
" />
<path d="M10500 8000
L11500 8000
" />
</g>
<g style="fill:#008484; fill-opacity:0.0; 
stroke:#008484; stroke-width:60; stroke-opacity:1; 
stroke-linecap:round; stroke-linejoin:round;">
<path d="M9210 7720
L9370 8220
L9540 7720
" />
<path d="M9680 8200
L9760 8220
L9870 8220
L9920 8200
L9950 8170
L9970 8130
L9970 8080
L9950 8030
L9920 8010
L9870 7980
L9780 7960
L9730 7940
L9710 7910
L9680 7860
L9680 7820
L9710 7770
L9730 7750
L9780 7720
L9900 7720
L9970 7750
" />
</g>
<g style="fill:#840000; fill-opacity:0.0; 
stroke:#840000; stroke-width:60; stroke-opacity:1; 
stroke-linecap:round; stroke-linejoin:round;">
<path d="M10590 7370
L10900 7370
L10730 7560
L10800 7560
L10850 7590
L10880 7610
L10900 7660
L10900 7780
L10880 7820
L10850 7850
L10800 7870
L10660 7870
L10610 7850
L10590 7820
" />
<path d="M11350 7370
L11110 7370
L11090 7610
L11110 7590
L11160 7560
L11280 7560
L11330 7590
L11350 7610
L11380 7660
L11380 7780
L11350 7820
L11330 7850
L11280 7870
L11160 7870
L11110 7850
L11090 7820
" />
<path d="M1500 18000
L500 18000
" />
</g>
<g style="fill:#008484; fill-opacity:0.0; 
stroke:#008484; stroke-width:60; stroke-opacity:1; 
stroke-linecap:round; stroke-linejoin:round;">
<path d="M2140 17720
L2190 17720
L2230 17750
L2260 17770
L2280 17820
L2310 17910
L2310 18030
L2280 18130
L2260 18170
L2230 18200
L2190 18220
L2140 18220
L2090 18200
L2070 18170
L2040 18130
L2020 18030
L2020 17910
L2040 17820
L2070 17770
L2090 17750
L2140 17720
" />
<path d="M2500 18080
L2730 18080
" />
<path d="M2450 18220
L2620 17720
L2780 18220
" />
</g>
<g style="fill:#840000; fill-opacity:0.0; 
stroke:#840000; stroke-width:60; stroke-opacity:1; 
stroke-linecap:round; stroke-linejoin:round;">
<path d="M900 17870
L610 17870
" />
<path d="M760 17870
L760 17370
L710 17440
L660 17490
L610 17510
" />
<path d="M1330 17370
L1230 17370
L1190 17400
L1160 17420
L1110 17490
L1090 17590
L1090 17780
L1110 17820
L1140 17850
L1190 17870
L1280 17870
L1330 17850
L1350 17820
L1380 17780
L1380 17660
L1350 17610
L1330 17590
L1280 17560
L1190 17560
L1140 17590
L1110 17610
L1090 17660
" />
<path d="M10500 17000
L11500 17000
" />
</g>
<g style="fill:#008484; fill-opacity:0.0; 
stroke:#008484; stroke-width:60; stroke-opacity:1; 
stroke-linecap:round; stroke-linejoin:round;">
<path d="M9230 16720
L9540 16720
L9370 16910
L9450 16910
L9490 16940
L9520 16960
L9540 17010
L9540 17130
L9520 17170
L9490 17200
L9450 17220
L9300 17220
L9260 17200
L9230 17170
" />
<path d="M9730 17080
L9970 17080
" />
<path d="M9680 17220
L9850 16720
L10020 17220
" />
</g>
<g style="fill:#840000; fill-opacity:0.0; 
stroke:#840000; stroke-width:60; stroke-opacity:1; 
stroke-linecap:round; stroke-linejoin:round;">
<path d="M10610 16420
L10640 16400
L10690 16370
L10800 16370
L10850 16400
L10880 16420
L10900 16470
L10900 16510
L10880 16590
L10590 16870
L10900 16870
" />
<path d="M11330 16370
L11230 16370
L11190 16400
L11160 16420
L11110 16490
L11090 16590
L11090 16780
L11110 16820
L11140 16850
L11190 16870
L11280 16870
L11330 16850
L11350 16820
L11380 16780
L11380 16660
L11350 16610
L11330 16590
L11280 16560
L11190 16560
L11140 16590
L11110 16610
L11090 16660
" />
<path d="M10500 7000
L11500 7000
" />
</g>
<g style="fill:#008484; fill-opacity:0.0; 
stroke:#008484; stroke-width:60; stroke-opacity:1; 
stroke-linecap:round; stroke-linejoin:round;">
<path d="M9260 6770
L9280 6750
L9330 6720
L9450 6720
L9490 6750
L9520 6770
L9540 6820
L9540 6860
L9520 6940
L9230 7220
L9540 7220
" />
<path d="M9730 7080
L9970 7080
" />
<path d="M9680 7220
L9850 6720
L10020 7220
" />
</g>
<g style="fill:#840000; fill-opacity:0.0; 
stroke:#840000; stroke-width:60; stroke-opacity:1; 
stroke-linecap:round; stroke-linejoin:round;">
<path d="M10590 6370
L10900 6370
L10730 6560
L10800 6560
L10850 6590
L10880 6610
L10900 6660
L10900 6780
L10880 6820
L10850 6850
L10800 6870
L10660 6870
L10610 6850
L10590 6820
" />
<path d="M11330 6370
L11230 6370
L11190 6400
L11160 6420
L11110 6490
L11090 6590
L11090 6780
L11110 6820
L11140 6850
L11190 6870
L11280 6870
L11330 6850
L11350 6820
L11380 6780
L11380 6660
L11350 6610
L11330 6590
L11280 6560
L11190 6560
L11140 6590
L11110 6610
L11090 6660
" />
<path d="M1500 19000
L500 19000
" />
</g>
<g style="fill:#008484; fill-opacity:0.0; 
stroke:#008484; stroke-width:60; stroke-opacity:1; 
stroke-linecap:round; stroke-linejoin:round;">
<path d="M1970 18720
L2140 19220
L2310 18720
" />
<path d="M2760 19170
L2730 19200
L2660 19220
L2620 19220
L2540 19200
L2500 19150
L2470 19100
L2450 19010
L2450 18940
L2470 18840
L2500 18790
L2540 18750
L2620 18720
L2660 18720
L2730 18750
L2760 18770
" />
<path d="M3260 19170
L3230 19200
L3160 19220
L3120 19220
L3040 19200
L3000 19150
L2970 19100
L2950 19010
L2950 18940
L2970 18840
L3000 18790
L3040 18750
L3120 18720
L3160 18720
L3230 18750
L3260 18770
" />
</g>
<g style="fill:#840000; fill-opacity:0.0; 
stroke:#840000; stroke-width:60; stroke-opacity:1; 
stroke-linecap:round; stroke-linejoin:round;">
<path d="M900 18870
L610 18870
" />
<path d="M760 18870
L760 18370
L710 18440
L660 18490
L610 18510
" />
<path d="M1070 18370
L1400 18370
L1190 18870
" />
<path d="M10500 16000
L11500 16000
" />
</g>
<g style="fill:#008484; fill-opacity:0.0; 
stroke:#008484; stroke-width:60; stroke-opacity:1; 
stroke-linecap:round; stroke-linejoin:round;">
<path d="M9160 15720
L9470 15720
L9300 15910
L9370 15910
L9420 15940
L9450 15960
L9470 16010
L9470 16130
L9450 16170
L9420 16200
L9370 16220
L9230 16220
L9180 16200
L9160 16170
" />
<path d="M9850 15960
L9920 15980
L9950 16010
L9970 16050
L9970 16130
L9950 16170
L9920 16200
L9870 16220
L9680 16220
L9680 15720
L9850 15720
L9900 15750
L9920 15770
L9950 15820
L9950 15860
L9920 15910
L9900 15940
L9850 15960
L9680 15960
" />
</g>
<g style="fill:#840000; fill-opacity:0.0; 
stroke:#840000; stroke-width:60; stroke-opacity:1; 
stroke-linecap:round; stroke-linejoin:round;">
<path d="M10610 15420
L10640 15400
L10690 15370
L10800 15370
L10850 15400
L10880 15420
L10900 15470
L10900 15510
L10880 15590
L10590 15870
L10900 15870
" />
<path d="M11070 15370
L11400 15370
L11190 15870
" />
<path d="M10500 6000
L11500 6000
" />
</g>
<g style="fill:#008484; fill-opacity:0.0; 
stroke:#008484; stroke-width:60; stroke-opacity:1; 
stroke-linecap:round; stroke-linejoin:round;">
<path d="M9180 5770
L9210 5750
L9260 5720
L9370 5720
L9420 5750
L9450 5770
L9470 5820
L9470 5860
L9450 5940
L9160 6220
L9470 6220
" />
<path d="M9850 5960
L9920 5980
L9950 6010
L9970 6050
L9970 6130
L9950 6170
L9920 6200
L9870 6220
L9680 6220
L9680 5720
L9850 5720
L9900 5750
L9920 5770
L9950 5820
L9950 5860
L9920 5910
L9900 5940
L9850 5960
L9680 5960
" />
</g>
<g style="fill:#840000; fill-opacity:0.0; 
stroke:#840000; stroke-width:60; stroke-opacity:1; 
stroke-linecap:round; stroke-linejoin:round;">
<path d="M10590 5370
L10900 5370
L10730 5560
L10800 5560
L10850 5590
L10880 5610
L10900 5660
L10900 5780
L10880 5820
L10850 5850
L10800 5870
L10660 5870
L10610 5850
L10590 5820
" />
<path d="M11070 5370
L11400 5370
L11190 5870
" />
<path d="M1500 20000
L500 20000
" />
</g>
<g style="fill:#008484; fill-opacity:0.0; 
stroke:#008484; stroke-width:60; stroke-opacity:1; 
stroke-linecap:round; stroke-linejoin:round;">
<path d="M2020 20080
L2260 20080
" />
<path d="M1970 20220
L2140 19720
L2310 20220
" />
<path d="M2730 20220
L2450 20220
" />
<path d="M2590 20220
L2590 19720
L2540 19790
L2500 19840
L2450 19860
" />
</g>
<g style="fill:#840000; fill-opacity:0.0; 
stroke:#840000; stroke-width:60; stroke-opacity:1; 
stroke-linecap:round; stroke-linejoin:round;">
<path d="M900 19870
L610 19870
" />
<path d="M760 19870
L760 19370
L710 19440
L660 19490
L610 19510
" />
<path d="M1190 19590
L1140 19560
L1110 19540
L1090 19490
L1090 19470
L1110 19420
L1140 19400
L1190 19370
L1280 19370
L1330 19400
L1350 19420
L1380 19470
L1380 19490
L1350 19540
L1330 19560
L1280 19590
L1190 19590
L1140 19610
L1110 19630
L1090 19680
L1090 19780
L1110 19820
L1140 19850
L1190 19870
L1280 19870
L1330 19850
L1350 19820
L1380 19780
L1380 19680
L1350 19630
L1330 19610
L1280 19590
" />
<path d="M10500 15000
L11500 15000
" />
</g>
<g style="fill:#008484; fill-opacity:0.0; 
stroke:#008484; stroke-width:60; stroke-opacity:1; 
stroke-linecap:round; stroke-linejoin:round;">
<path d="M9160 14720
L9470 14720
L9300 14910
L9370 14910
L9420 14940
L9450 14960
L9470 15010
L9470 15130
L9450 15170
L9420 15200
L9370 15220
L9230 15220
L9180 15200
L9160 15170
" />
<path d="M9970 15170
L9950 15200
L9870 15220
L9830 15220
L9760 15200
L9710 15150
L9680 15100
L9660 15010
L9660 14940
L9680 14840
L9710 14790
L9760 14750
L9830 14720
L9870 14720
L9950 14750
L9970 14770
" />
</g>
<g style="fill:#840000; fill-opacity:0.0; 
stroke:#840000; stroke-width:60; stroke-opacity:1; 
stroke-linecap:round; stroke-linejoin:round;">
<path d="M10610 14420
L10640 14400
L10690 14370
L10800 14370
L10850 14400
L10880 14420
L10900 14470
L10900 14510
L10880 14590
L10590 14870
L10900 14870
" />
<path d="M11190 14590
L11140 14560
L11110 14540
L11090 14490
L11090 14470
L11110 14420
L11140 14400
L11190 14370
L11280 14370
L11330 14400
L11350 14420
L11380 14470
L11380 14490
L11350 14540
L11330 14560
L11280 14590
L11190 14590
L11140 14610
L11110 14630
L11090 14680
L11090 14780
L11110 14820
L11140 14850
L11190 14870
L11280 14870
L11330 14850
L11350 14820
L11380 14780
L11380 14680
L11350 14630
L11330 14610
L11280 14590
" />
<path d="M10500 5000
L11500 5000
" />
</g>
<g style="fill:#008484; fill-opacity:0.0; 
stroke:#008484; stroke-width:60; stroke-opacity:1; 
stroke-linecap:round; stroke-linejoin:round;">
<path d="M9180 4770
L9210 4750
L9260 4720
L9370 4720
L9420 4750
L9450 4770
L9470 4820
L9470 4860
L9450 4940
L9160 5220
L9470 5220
" />
<path d="M9970 5170
L9950 5200
L9870 5220
L9830 5220
L9760 5200
L9710 5150
L9680 5100
L9660 5010
L9660 4940
L9680 4840
L9710 4790
L9760 4750
L9830 4720
L9870 4720
L9950 4750
L9970 4770
" />
</g>
<g style="fill:#840000; fill-opacity:0.0; 
stroke:#840000; stroke-width:60; stroke-opacity:1; 
stroke-linecap:round; stroke-linejoin:round;">
<path d="M10590 4370
L10900 4370
L10730 4560
L10800 4560
L10850 4590
L10880 4610
L10900 4660
L10900 4780
L10880 4820
L10850 4850
L10800 4870
L10660 4870
L10610 4850
L10590 4820
" />
<path d="M11190 4590
L11140 4560
L11110 4540
L11090 4490
L11090 4470
L11110 4420
L11140 4400
L11190 4370
L11280 4370
L11330 4400
L11350 4420
L11380 4470
L11380 4490
L11350 4540
L11330 4560
L11280 4590
L11190 4590
L11140 4610
L11110 4630
L11090 4680
L11090 4780
L11110 4820
L11140 4850
L11190 4870
L11280 4870
L11330 4850
L11350 4820
L11380 4780
L11380 4680
L11350 4630
L11330 4610
L11280 4590
" />
<path d="M1500 21000
L500 21000
" />
</g>
<g style="fill:#008484; fill-opacity:0.0; 
stroke:#008484; stroke-width:60; stroke-opacity:1; 
stroke-linecap:round; stroke-linejoin:round;">
<path d="M2020 21080
L2260 21080
" />
<path d="M1970 21220
L2140 20720
L2310 21220
" />
<path d="M2570 20720
L2620 20720
L2660 20750
L2690 20770
L2710 20820
L2730 20910
L2730 21030
L2710 21130
L2690 21170
L2660 21200
L2620 21220
L2570 21220
L2520 21200
L2500 21170
L2470 21130
L2450 21030
L2450 20910
L2470 20820
L2500 20770
L2520 20750
L2570 20720
" />
</g>
<g style="fill:#840000; fill-opacity:0.0; 
stroke:#840000; stroke-width:60; stroke-opacity:1; 
stroke-linecap:round; stroke-linejoin:round;">
<path d="M900 20870
L610 20870
" />
<path d="M760 20870
L760 20370
L710 20440
L660 20490
L610 20510
" />
<path d="M1140 20870
L1230 20870
L1280 20850
L1300 20820
L1350 20750
L1380 20660
L1380 20470
L1350 20420
L1330 20400
L1280 20370
L1190 20370
L1140 20400
L1110 20420
L1090 20470
L1090 20590
L1110 20630
L1140 20660
L1190 20680
L1280 20680
L1330 20660
L1350 20630
L1380 20590
" />
<path d="M10500 14000
L11500 14000
" />
</g>
<g style="fill:#008484; fill-opacity:0.0; 
stroke:#008484; stroke-width:60; stroke-opacity:1; 
stroke-linecap:round; stroke-linejoin:round;">
<path d="M9160 13720
L9470 13720
L9300 13910
L9370 13910
L9420 13940
L9450 13960
L9470 14010
L9470 14130
L9450 14170
L9420 14200
L9370 14220
L9230 14220
L9180 14200
L9160 14170
" />
<path d="M9680 14220
L9680 13720
L9800 13720
L9870 13750
L9920 13790
L9950 13840
L9970 13940
L9970 14010
L9950 14100
L9920 14150
L9870 14200
L9800 14220
L9680 14220
" />
</g>
<g style="fill:#840000; fill-opacity:0.0; 
stroke:#840000; stroke-width:60; stroke-opacity:1; 
stroke-linecap:round; stroke-linejoin:round;">
<path d="M10610 13420
L10640 13400
L10690 13370
L10800 13370
L10850 13400
L10880 13420
L10900 13470
L10900 13510
L10880 13590
L10590 13870
L10900 13870
" />
<path d="M11140 13870
L11230 13870
L11280 13850
L11300 13820
L11350 13750
L11380 13660
L11380 13470
L11350 13420
L11330 13400
L11280 13370
L11190 13370
L11140 13400
L11110 13420
L11090 13470
L11090 13590
L11110 13630
L11140 13660
L11190 13680
L11280 13680
L11330 13660
L11350 13630
L11380 13590
" />
<path d="M10500 4000
L11500 4000
" />
</g>
<g style="fill:#008484; fill-opacity:0.0; 
stroke:#008484; stroke-width:60; stroke-opacity:1; 
stroke-linecap:round; stroke-linejoin:round;">
<path d="M9260 3770
L9280 3750
L9330 3720
L9450 3720
L9490 3750
L9520 3770
L9540 3820
L9540 3860
L9520 3940
L9230 4220
L9540 4220
" />
<path d="M9920 3960
L9760 3960
" />
<path d="M9760 4220
L9760 3720
L9990 3720
" />
</g>
<g style="fill:#840000; fill-opacity:0.0; 
stroke:#840000; stroke-width:60; stroke-opacity:1; 
stroke-linecap:round; stroke-linejoin:round;">
<path d="M10590 3370
L10900 3370
L10730 3560
L10800 3560
L10850 3590
L10880 3610
L10900 3660
L10900 3780
L10880 3820
L10850 3850
L10800 3870
L10660 3870
L10610 3850
L10590 3820
" />
<path d="M11140 3870
L11230 3870
L11280 3850
L11300 3820
L11350 3750
L11380 3660
L11380 3470
L11350 3420
L11330 3400
L11280 3370
L11190 3370
L11140 3400
L11110 3420
L11090 3470
L11090 3590
L11110 3630
L11140 3660
L11190 3680
L11280 3680
L11330 3660
L11350 3630
L11380 3590
" />
</g>
<g style="fill:#008484; fill-opacity:0.0; 
stroke:#008484; stroke-width:60; stroke-opacity:1; 
stroke-linecap:round; stroke-linejoin:round;">
<path d="M5530 990
L5530 490
" />
<path d="M6050 940
L6030 970
L5960 990
L5910 990
L5840 970
L5790 920
L5770 870
L5750 780
L5750 710
L5770 610
L5790 560
L5840 520
L5910 490
L5960 490
L6030 520
L6050 540
" />
<path d="M6340 940
L6360 970
L6340 990
L6320 970
L6340 940
L6340 990
" />
<path d="M6250 520
L6290 490
L6410 490
L6460 520
L6480 560
L6480 610
L6460 660
L6440 680
L6390 710
L6360 730
L6340 780
L6340 800
" />
<path d="M4650 1640
L4480 1640
" />
<path d="M4480 1900
L4480 1400
L4720 1400
" />
<path d="M4910 1900
L4910 1400
L5100 1400
L5150 1430
L5170 1450
L5200 1500
L5200 1570
L5170 1620
L5150 1640
L5100 1660
L4910 1660
" />
<path d="M5390 1450
L5410 1430
L5460 1400
L5580 1400
L5630 1430
L5650 1450
L5670 1500
L5670 1540
L5650 1620
L5360 1900
L5670 1900
" />
<path d="M5960 1620
L5910 1590
L5890 1570
L5860 1520
L5860 1500
L5890 1450
L5910 1430
L5960 1400
L6050 1400
L6100 1430
L6130 1450
L6150 1500
L6150 1520
L6130 1570
L6100 1590
L6050 1620
L5960 1620
L5910 1640
L5890 1660
L5860 1710
L5860 1810
L5890 1850
L5910 1880
L5960 1900
L6050 1900
L6100 1880
L6130 1850
L6150 1810
L6150 1710
L6130 1660
L6100 1640
L6050 1620
" />
<path d="M6460 1400
L6510 1400
L6550 1430
L6580 1450
L6600 1500
L6630 1590
L6630 1710
L6600 1810
L6580 1850
L6550 1880
L6510 1900
L6460 1900
L6410 1880
L6390 1850
L6360 1810
L6340 1710
L6340 1590
L6360 1500
L6390 1450
L6410 1430
L6460 1400
" />
<path d="M6940 1400
L6980 1400
L7030 1430
L7050 1450
L7080 1500
L7100 1590
L7100 1710
L7080 1810
L7050 1850
L7030 1880
L6980 1900
L6940 1900
L6890 1880
L6860 1850
L6840 1810
L6820 1710
L6820 1590
L6840 1500
L6860 1450
L6890 1430
L6940 1400
" />
<path d="M7290 1760
L7530 1760
" />
<path d="M7250 1900
L7410 1400
L7580 1900
" />
</g> 
</svg>
